<?xml version="1.0" encoding="utf-8"?>
<!-- Generator: Adobe Illustrator 21.1.0, SVG Export Plug-In . SVG Version: 6.00 Build 0)  -->
<svg version="1.1" id="icon" xmlns="http://www.w3.org/2000/svg" xmlns:xlink="http://www.w3.org/1999/xlink" x="0px" y="0px"
	 viewBox="0 0 128 128" enable-background="new 0 0 128 128" xml:space="preserve">
<g>
	<path d="M28,48C14.7,48,4,58.7,4,72s10.7,24,24,24s24-10.7,24-24S41.3,48,28,48z M28,92C17,92,8,83,8,72c0-11,9-20,20-20
		c11,0,20,9,20,20C48,83,39,92,28,92z"/>
	<path d="M100,48c-13.3,0-24,10.7-24,24s10.7,24,24,24s24-10.7,24-24S113.3,48,100,48z M100,92c-11,0-20-9-20-20c0-11,9-20,20-20
		c11,0,20,9,20,20C120,83,111,92,100,92z"/>
	<line fill="none" stroke="#000000" stroke-width="4" stroke-miterlimit="10" x1="28" y1="72" x2="101" y2="72"/>
	<line fill="none" stroke="#000000" stroke-width="4" stroke-miterlimit="10" x1="64" y1="72" x2="53" y2="37"/>
	<line fill="none" stroke="#000000" stroke-width="4" stroke-miterlimit="10" x1="46" y1="37" x2="60" y2="37"/>
	<path fill="none" stroke="#000000" stroke-width="4" stroke-miterlimit="10" d="M101,72V32c-19,0-19,0-19,0l0,0"/>
	<circle cx="28" cy="72" r="8"/>
	<circle cx="101" cy="72" r="8"/>
</g>
</svg>
