<?xml version="1.0" encoding="iso-8859-1"?>
<!-- Generator: Adobe Illustrator 20.0.0, SVG Export Plug-In . SVG Version: 6.00 Build 0)  -->
<svg version="1.1" id="Layer_1" xmlns="http://www.w3.org/2000/svg" xmlns:xlink="http://www.w3.org/1999/xlink" x="0px" y="0px"
	 viewBox="0 0 128 128" style="enable-background:new 0 0 128 128;" xml:space="preserve">
<path d="M64,8C33.074,8,8,33.074,8,64s25.074,56,56,56s56-25.074,56-56S94.926,8,64,8z M64,12c10.246,0,19.781,3.019,27.844,8.156
	L77.144,34.855C73.129,33.037,68.687,32,64,32c-4.688,0-9.129,1.037-13.145,2.855L36.156,20.156C44.219,15.019,53.754,12,64,12z
	 M34.855,77.145L20.156,91.844C15.019,83.783,12,74.246,12,64s3.019-19.783,8.156-27.844l14.699,14.699
	C33.039,54.871,32,59.312,32,64S33.039,73.129,34.855,77.145z M64,116c-10.246,0-19.781-3.02-27.844-8.156l14.699-14.699
	C54.871,94.963,59.312,96,64,96c4.687,0,9.129-1.037,13.144-2.855l14.699,14.699C83.781,112.98,74.246,116,64,116z M90.086,74.113
	c-2.844,7.314-8.656,13.125-15.969,15.969C70.977,91.305,67.57,92,64,92c-3.57,0-6.977-0.695-10.117-1.918
	c-7.312-2.844-13.125-8.654-15.969-15.969C36.695,70.973,36,67.57,36,64c0-3.57,0.695-6.971,1.914-10.109
	c2.844-7.316,8.66-13.133,15.969-15.975C57.027,36.695,60.43,36,64,36c3.57,0,6.973,0.695,10.117,1.916
	c7.309,2.842,13.125,8.658,15.969,15.975C91.305,57.029,92,60.43,92,64C92,67.57,91.305,70.973,90.086,74.113z M93.144,77.145
	C94.961,73.129,96,68.688,96,64s-1.039-9.129-2.856-13.145l14.699-14.699C112.98,44.217,116,53.754,116,64
	s-3.02,19.783-8.156,27.844L93.144,77.145z"/>
</svg>
