<?xml version="1.0" encoding="iso-8859-1"?>
<!-- Generator: Adobe Illustrator 20.0.0, SVG Export Plug-In . SVG Version: 6.00 Build 0)  -->
<svg version="1.1" id="Layer_1" xmlns="http://www.w3.org/2000/svg" xmlns:xlink="http://www.w3.org/1999/xlink" x="0px" y="0px"
	 viewBox="0 0 128 128" style="enable-background:new 0 0 128 128;" xml:space="preserve">
<g>
	<path d="M47.373,54h33.254c-3.586-4.822-9.692-8-16.627-8C57.064,46,50.959,49.178,47.373,54z"/>
	<path d="M44.131,62C44.047,62.656,44,63.324,44,64v6h40v-6c0-0.676-0.047-1.344-0.131-2H44.131z"/>
	<path d="M44,84c0,0.676,0.047,1.344,0.131,2h39.738C83.953,85.344,84,84.676,84,84v-6H44V84z"/>
	<path d="M64,102c6.935,0,13.041-3.178,16.627-8H47.373C50.959,98.822,57.064,102,64,102z"/>
	<path d="M12.922,58.197c-1.703,0.707-3.305,1.746-4.689,3.131c-1.387,1.387-2.424,2.984-3.131,4.688
		c-0.733,1.77-1.104,3.65-1.102,5.531c-0.002,1.887,0.369,3.766,1.102,5.533c0.707,1.709,1.744,3.305,3.131,4.689
		c1.385,1.387,2.986,2.424,4.688,3.133C14.678,85.629,16.551,86,18.424,86c0.01,0,0.02,0,0.029,0c0.01,0,0.02,0,0.029,0
		c1.871,0,3.742-0.371,5.502-1.102c1.707-0.705,3.303-1.744,4.688-3.129c1.385-1.385,2.426-2.982,3.133-4.689L44,46L12.922,58.197z
		 M28.096,75.581c-0.528,1.263-1.286,2.394-2.253,3.36c-0.974,0.974-2.113,1.734-3.392,2.263C21.178,81.732,19.843,82,18.482,82
		h-0.059c-1.363,0-2.701-0.268-3.965-0.79c-1.287-0.536-2.429-1.299-3.4-2.271c-0.971-0.971-1.732-2.11-2.262-3.391
		C8.267,74.27,7.998,72.924,8,71.543c-0.002-1.371,0.267-2.716,0.796-3.994c0.531-1.279,1.293-2.42,2.265-3.392
		c0.962-0.962,2.093-1.719,3.361-2.251l22.505-8.833L28.096,75.581z"/>
	<path d="M122.898,66.016c-0.707-1.703-1.744-3.301-3.131-4.688c-1.385-1.385-2.986-2.424-4.689-3.131L84,46l12.195,31.08
		c0.707,1.707,1.748,3.305,3.133,4.689c1.385,1.385,2.98,2.424,4.688,3.129c1.76,0.73,3.631,1.102,5.502,1.102
		c0.01,0,0.02,0,0.029,0c0.01,0,0.02,0,0.029,0c1.873,0,3.746-0.371,5.504-1.098c1.701-0.709,3.303-1.746,4.688-3.133
		c1.387-1.385,2.424-2.98,3.131-4.689c0.732-1.768,1.104-3.646,1.102-5.533C124.002,69.666,123.631,67.785,122.898,66.016z
		 M119.202,75.551c-0.528,1.278-1.29,2.418-2.265,3.393c-0.967,0.968-2.109,1.73-3.385,2.262c-1.275,0.527-2.613,0.795-3.976,0.795
		h-0.059c-1.361,0-2.696-0.268-3.975-0.799c-1.272-0.525-2.412-1.286-3.386-2.26c-0.967-0.967-1.725-2.098-2.253-3.36l-8.831-22.509
		l22.505,8.833c1.268,0.532,2.399,1.289,3.361,2.251c0.972,0.973,1.734,2.113,2.264,3.389c0.53,1.282,0.799,2.627,0.797,4.006
		C120.001,72.924,119.733,74.27,119.202,75.551z"/>
	<path d="M54,42c4.418,0,8-3.58,8-8s-3.582-8-8-8s-8,3.58-8,8S49.582,42,54,42z M54,30c2.206,0,4,1.795,4,4s-1.794,4-4,4
		c-2.206,0-4-1.795-4-4S51.794,30,54,30z"/>
	<path d="M74,42c4.418,0,8-3.58,8-8s-3.582-8-8-8s-8,3.58-8,8S69.582,42,74,42z M74,30c2.206,0,4,1.795,4,4s-1.794,4-4,4
		c-2.206,0-4-1.795-4-4S71.794,30,74,30z"/>
</g>
</svg>
