<svg id="Layer_1" data-name="Layer 1" xmlns="http://www.w3.org/2000/svg" viewBox="0 0 128 128"><defs><style>.cls-1{fill:#fff;stroke:#000;stroke-miterlimit:10;stroke-width:4px;}</style></defs><title>police icon</title><path class="cls-1" d="M105,10.09V81.73A33.35,33.35,0,0,1,71.74,115h-15A33.35,33.35,0,0,1,23.5,81.73V10.09c0,8,9.06,14.54,20.22,14.54s20.22-6.51,20.22-14.54h.61c0,8,9.06,14.54,20.22,14.54S105,18.12,105,10.09Z"/><polygon points="64.25 28.34 74.31 48.72 96.8 51.99 80.52 67.85 84.37 90.25 64.25 79.67 44.13 90.25 47.98 67.85 31.7 51.99 54.19 48.72 64.25 28.34"/></svg>