<?xml version="1.0" encoding="utf-8"?>
<!-- Generator: Adobe Illustrator 21.1.0, SVG Export Plug-In . SVG Version: 6.00 Build 0)  -->
<svg version="1.1" id="icon" xmlns="http://www.w3.org/2000/svg" xmlns:xlink="http://www.w3.org/1999/xlink" x="0px" y="0px"
	 viewBox="0 0 128 128" enable-background="new 0 0 128 128" xml:space="preserve">
<polygon fill-rule="evenodd" clip-rule="evenodd" points="79.9,109 79.9,113 74.9,113 74.9,124 70.9,124 70.9,113 65.9,113 
	65.9,109 70.9,109 70.9,29.4 67.9,29.4 67.9,26.6 70.9,26.6 70.9,4 74.9,4 74.9,26.6 77.9,26.6 77.9,29.4 74.9,29.4 74.9,109 "/>
<polygon fill-rule="evenodd" clip-rule="evenodd" points="94.9,109 94.9,113 89.9,113 89.9,124 85.9,124 85.9,113 80.9,113 
	80.9,109 85.9,109 85.9,29.4 82.9,29.4 82.9,26.6 85.9,26.6 85.9,4 89.9,4 89.9,26.6 92.9,26.6 92.9,29.4 89.9,29.4 89.9,109 "/>
<path fill-rule="evenodd" clip-rule="evenodd" d="M51,4c-3.3,0-6,2.7-6,6v114h12V10C57,6.7,54.3,4,51,4z M55,122h-8V77h8V122z
	 M55,55h-8V10c0-2.2,1.8-4,4-4c2.2,0,4,1.8,4,4V55z"/>
<path fill-rule="evenodd" clip-rule="evenodd" d="M34,4c-3.3,0-6,2.7-6,6v114h12V10C40,6.7,37.3,4,34,4z M38,122h-8V77h8V122z
	 M38,55h-8V10c0-2.2,1.8-4,4-4c2.2,0,4,1.8,4,4V55z"/>
</svg>
